<svg xmlns="http://www.w3.org/2000/svg" viewBox="0 0 256 256">
  <title>codepen</title>
  <g id="Layer_2" data-name="Layer 2">
    <g id="Codepen">
      <rect id="Base" width="256" height="256" fill="#343338"/>
      <path id="Shadow" d="M54,158l79,98H256V150L128,61,55,109Z" opacity="0.15" style="isolation: isolate"/>
      <path id="codepen-logo" d="M208.84,106.06a5.42,5.42,0,0,0-1-2.86,9.77,9.77,0,0,0-2-2c-.07-.06-.15-.1-.22-.15l-1.73-1.16-7.75-5.16-11.83-7.89q-6.95-4.65-13.91-9.28l-14.08-9.4-12.36-8.24-8.62-5.75a20.94,20.94,0,0,0-4.71-2.82,7.05,7.05,0,0,0-6.18,1l-1.81,1.21-7.86,5.24-11.89,7.94-14,9.32-14,9.36-12.3,8.21L54,99.32a21.92,21.92,0,0,0-4.31,3.2A7.35,7.35,0,0,0,48,107.73v46.75a16.13,16.13,0,0,0,.11,2.78,7.17,7.17,0,0,0,3.27,4.7l5,3.36L66.49,172l13.15,8.78,14.28,9.53,13.43,8.95q5.32,3.57,10.67,7.12,3,2,6,4a8.7,8.7,0,0,0,2.74,1.37,7.35,7.35,0,0,0,5.93-1.16l5.3-3.53,10.17-6.79,13.22-8.82L175.66,182l13.4-8.94,10.52-7,5.76-3.84A9.71,9.71,0,0,0,207.7,160a7.44,7.44,0,0,0,1.3-4.84V107.33C209,106.9,208.84,106.5,208.84,106.06ZM135.37,70.8l5.42,3.62,12.94,8.63,15.62,10.43,13.51,9,4.48,3,1.39.93a2.92,2.92,0,0,1,.72.48l.09.06-6.05,4L172,118.66l-4.56,3.05-1.43,1a2.55,2.55,0,0,1-.68.46,3.55,3.55,0,0,1-1.13-.72l-3.52-2.35-10.88-7.29-10.6-7.09-3.14-2.09a1.22,1.22,0,0,1-.73-.67,7.35,7.35,0,0,1,0-1.05V70.8Zm-13.84,0v31.11a2.51,2.51,0,0,1-.07,1.23,3.65,3.65,0,0,1-.69.47c-.45.29-.89.59-1.33.89q-4.79,3.18-9.55,6.38l-11.42,7.64c-2.24,1.5-4.45,3-6.71,4.49a.4.4,0,0,1-.24.11,2.46,2.46,0,0,1-.7-.47l-3.51-2.35-11.22-7.51-8.29-5.55-.44-.29,5.43-3.62L85.72,94.7l15.62-10.43,13.51-9,6.59-4.39ZM61.85,119.92l5.83,3.9,9.3,6.23,2.14,1.43-5.83,3.9L64,141.61,61.85,143V119.92Zm59.68,72.23-5.43-3.62-12.93-8.62L87.55,169.48l-13.51-9-4.48-3-1.39-.93a2.92,2.92,0,0,1-.72-.48l-.09-.06,6.08-4.07,11.46-7.67,4.52-3,1.44-1a2.39,2.39,0,0,1,.67-.45,3.66,3.66,0,0,1,1.15.73l3.5,2.34,10.92,7.31,10.59,7.09,3.12,2.08a1.15,1.15,0,0,1,.72.67,26,26,0,0,1,0,2.93v29.17Zm6.92-44.32-8.31-5.55L107,133.49l-3-2,8.31-5.56,13.14-8.78,2-1.36a3.37,3.37,0,0,1,.94-.63.87.87,0,0,1,.41.22l1.55,1,12.55,8.39,6.36,4.25c.73.5,1.47,1,2.21,1.48a12,12,0,0,1,1.26.84l.16.11L144.59,137l-13.13,8.78-3,2Zm6.92,44.32v-31.1a2.56,2.56,0,0,1,.07-1.24,3.6,3.6,0,0,1,.69-.46c.45-.29.89-.59,1.33-.89l9.55-6.38,11.42-7.64c2.23-1.5,4.45-3,6.71-4.49a.35.35,0,0,1,.24-.11,2.46,2.46,0,0,1,.7.47l3.51,2.34,11.22,7.52,8.29,5.55.44.29-5.43,3.62-12.93,8.63-15.62,10.42-13.51,9-6.59,4.39ZM195.05,143l-5.83-3.9-9.3-6.23-2.14-1.43,5.83-3.91,9.3-6.22,2.14-1.43V143Z" fill="#fff"/>
    </g>
  </g>
</svg>
