<svg xmlns="http://www.w3.org/2000/svg" viewBox="0 0 256 256">
  <title>github</title>
  <g id="Layer_2" data-name="Layer 2">
    <g id="GitHub">
      <rect id="Base" width="256" height="256" fill="#3f91cb"/>
      <path id="Shadow" d="M60,182S40,104.57,73.14,77.14,151.07,50.21,180,66l76,76V256H134.29Z" opacity="0.17" style="isolation: isolate"/>
      <path id="GitHub_icon" data-name="GitHub icon" d="M128.09,48A84.09,84.09,0,1,1,44,132.09,84.09,84.09,0,0,1,128.09,48ZM152,177.78c0-6.83-3.81-10.85-8-13.78,24.93-2.14,34.1-14.34,35.72-32.46,1.32-12-.75-21.69-8.07-29.24,3.29-7.43.91-17.62-.74-21.83-5.63-1.66-18.74,5.43-22.4,8.47-7.73-3.07-29.31-4.15-40.81,0-8.15-5.87-17.42-9.5-22.48-8.49-4.66,10.6-1.66,20.62-.75,21.82-6,5.63-10,17-7.93,30.74,3.33,20.12,11.93,28.18,35.46,31a12.4,12.4,0,0,0-4.15,7.47c-15.79,6.68-20.31-4.13-22.31-6.95-6.63-8.41-12.58-6-12.95-5.83a1,1,0,0,0-.59.91c.33,1.82,3.95,3.66,4.12,3.81,4.9,3.74,6.85,10.42,7.82,12.42,8.06,16.17,23.84,6.92,24,7,0,1,.06,37.15.06,37.15l44,.12S152,188.34,152,177.78Z" fill="#fff"/>
    </g>
  </g>
</svg>
