<svg xmlns="http://www.w3.org/2000/svg" viewBox="0 0 256 256">
  <title>linkedin</title>
  <g id="Layer_2" data-name="Layer 2">
    <g id="LinkedIn">
      <rect id="Base" width="256" height="256" fill="#238cc8"/>
      <path id="Shadow" d="M48,215.5,78,107,52,81l8-21,18-8,48,48,5.75.12L146,114l50-11,60,60v93H88.5Z" opacity="0.17" style="isolation: isolate"/>
      <path id="Linked_In_icon" data-name="Linked In icon" d="M84.17,66c0,10.36-7.44,18-20.17,18-12,0-20-7.62-20-18,0-10.61,8-18.13,20.21-18.13S83.93,55.41,84.17,66ZM47.94,216V100.06H80V216h-32ZM104,100.06h28.58l2.36,12.55C139.67,105.05,152.63,96,172,96c23.62,0,39.95,13.78,39.95,47.77V216H180v-67.1c0-14.87-9.2-25-22.2-25-9.92,0-18.07,6.85-20.67,13.46-.94,2.35-1.18,5.66-1.18,9V216H104V100.06Z" fill="#fff"/>
    </g>
  </g>
</svg>
